<svg width="94" height="119" viewBox="0 0 94 119" fill="none" xmlns="http://www.w3.org/2000/svg">
<circle cx="45" cy="75" r="44" fill="#006E7A"/>
<path d="M60.1577 91.7601C59.9521 91.5666 59.7685 91.5058 59.4519 91.6136C58.7789 91.8444 58.0717 91.9702 57.3782 92.1403C57.2069 92.1748 57.0356 92.2094 56.8642 92.2439C56.8313 92.2536 56.7985 92.2633 56.7642 92.273C56.6271 92.2743 56.4914 92.2757 56.3544 92.2771C56.2173 92.3103 56.0803 92.3434 55.9432 92.3766C55.7719 92.3766 55.6006 92.3766 55.4292 92.3766C54.8906 92.4402 54.3533 92.5411 53.8147 92.5577C52.9485 92.584 52.0823 92.5549 51.2147 92.5494C51.1393 92.4222 51.064 92.2965 50.99 92.1693C50.9283 92.2619 50.8666 92.3531 50.8036 92.4457C49.6961 92.3103 48.5668 92.266 47.4854 92.0172C45.5748 91.5777 43.7026 90.9778 41.9921 89.9784C41.1054 89.46 40.2584 88.8712 39.3853 88.3266C39.1276 88.1662 38.8412 88.0515 38.4958 87.8787C38.3862 87.341 37.8845 86.9636 37.4405 86.542C37.3349 86.4812 37.2294 86.4204 37.1225 86.3596L36.8182 85.9449C36.9621 85.5896 36.7003 85.6477 36.5071 85.6353C36.4084 85.4652 36.3138 85.2938 36.2097 85.128C36.0754 84.9151 35.9328 84.7064 35.7944 84.4949C35.756 84.4258 35.7176 84.3567 35.6793 84.2875C35.105 83.1278 34.5787 81.9501 34.3388 80.666C34.332 80.5278 34.3238 80.3895 34.3169 80.2513C34.2374 79.5546 34.0291 78.8428 34.1086 78.1641C34.2306 77.1232 34.5499 76.1059 34.7857 75.0774C34.8816 74.8673 34.9762 74.6572 35.0721 74.4471C35.5628 73.2556 36.2357 72.1774 37.1047 71.2306C37.5597 70.7329 38.0545 70.2726 38.5246 69.7875C38.6013 69.7087 38.6383 69.5898 38.6932 69.4889C38.7452 69.4626 38.796 69.4364 38.848 69.4101C39.3168 69.0991 39.78 68.7798 40.2556 68.4798C40.7572 68.1633 41.2657 67.8592 41.777 67.562C43.1996 66.7354 44.7319 66.1562 46.3012 65.7139C47.3223 65.4264 48.3913 65.284 49.4481 65.1555C50.4856 65.0297 51.5341 64.9661 52.5798 64.944C55.347 64.8859 58.0388 65.3089 60.6662 66.2157C63.7322 67.2731 66.4226 68.9042 68.5429 71.3812C69.9176 72.9874 70.8551 74.8425 71.1634 76.9781C71.1867 77.1439 71.2936 77.2974 71.3622 77.4577V80.0453C71.2936 80.1891 71.1881 80.3273 71.1634 80.478C70.8208 82.6758 69.7942 84.5322 68.3921 86.2117C68.2743 86.3527 68.2194 86.6402 68.2729 86.8185C68.4977 87.5635 68.6197 88.3431 68.9966 89.0412C69.3885 89.7696 69.7545 90.5133 70.1314 91.2501C70.1561 91.2736 70.1821 91.2984 70.2068 91.3219C70.2876 91.5168 70.3438 91.7256 70.4535 91.9025C70.744 92.3725 71.0579 92.8286 71.3635 93.2903V94.222C71.3032 94.2358 71.2224 94.2303 71.1854 94.2676C70.8619 94.5883 70.5467 94.9172 70.2287 95.2448H69.209C69.0719 95.0223 68.9212 94.8702 68.6868 95.1412C68.4483 95.108 68.2112 95.0762 67.9727 95.043C67.8357 95.0168 67.6973 94.9891 67.5602 94.9629C67.3889 94.9214 67.2189 94.8785 67.0476 94.8371C66.9448 94.8108 66.8407 94.7832 66.7379 94.7569C66.3651 94.6532 65.9936 94.5496 65.6208 94.4459C65.4111 94.3699 65.2014 94.2925 64.9917 94.2164C64.5477 94.045 64.1036 93.8736 63.6609 93.7022C63.4526 93.6055 63.2456 93.5101 63.0373 93.4133C62.6618 93.2309 62.2862 93.0484 61.9107 92.8659C61.7394 92.7637 61.5667 92.6614 61.3954 92.5591C61.2268 92.4568 61.0568 92.3545 60.8882 92.2522C60.6457 92.0877 60.4031 91.9246 60.1605 91.7601H60.1577ZM46.5671 77.3513C45.7598 77.3402 45.0581 77.994 45.0471 78.7667C45.0334 79.7274 45.6488 80.4324 46.5013 80.4642C47.1647 80.4877 48.1337 79.8629 48.1145 78.9962C48.0926 78.0189 47.5032 77.4425 46.5685 77.3513H46.5671ZM60.4661 78.9478C60.4771 77.9567 59.7644 77.3623 58.9078 77.361C58.021 77.361 57.3481 78.1986 57.4001 78.8842C57.4618 79.715 58.0854 80.4987 58.9763 80.4642C59.7603 80.4338 60.4771 79.7219 60.4675 78.9492L60.4661 78.9478ZM54.2985 78.9437C54.2656 78.0286 53.6078 77.3831 52.7183 77.3568C51.8945 77.3319 51.2161 78.03 51.2134 78.8511C51.212 79.6597 51.9562 80.4628 52.7073 80.46C53.5132 80.4573 54.3013 79.7067 54.2972 78.9437H54.2985Z" fill="white"/>
<path d="M52.2717 61.7315C51.9968 61.8224 51.7246 61.9821 51.4456 61.9917C50.8027 62.0137 50.1435 62.3992 49.5156 62.0743C49.2421 62.0977 48.9685 62.1211 48.695 62.1445C48.6239 62.1789 48.5514 62.2133 48.4802 62.2491C47.981 62.3537 47.4749 62.4336 46.9839 62.5685C45.9745 62.8438 44.9664 63.1246 43.972 63.4509C43.2102 63.7 42.4648 64.0056 41.7248 64.3154C40.2175 64.9472 38.7581 65.6713 37.4984 66.7409C36.8076 67.3273 36.1087 67.9069 35.4412 68.5208C35.1403 68.7975 34.9078 69.1499 34.6452 69.4679C34.6096 69.4954 34.5741 69.5216 34.5399 69.5491C34.057 70.2539 33.5633 70.9505 33.0969 71.6663C32.7659 72.1743 32.4649 72.7043 32.1681 73.2342C32.0738 73.4022 32.0341 73.6004 31.9698 73.7835C31.8659 73.8909 31.7619 73.9983 31.658 74.1056C31.5978 74.6205 31.5376 75.1339 31.4788 75.6488C31.4446 75.7864 31.4104 75.9241 31.3762 76.0604C30.9795 76.6454 31.145 77.3268 31.0425 77.9642C30.7921 79.5252 31.104 81.0216 31.4651 82.5193C31.4719 82.5468 31.4459 82.5812 31.435 82.6129C31.4063 82.6267 31.3666 82.6597 31.3502 82.6501C30.3914 82.1325 29.5926 82.5152 28.8253 83.0947C28.5463 83.3053 28.2577 83.5008 27.9732 83.7045C27.6982 83.8326 27.4233 83.9606 27.1484 84.0872C26.2949 84.4355 25.4428 84.7852 24.5893 85.1334C24.5209 85.1596 24.4511 85.1857 24.3827 85.2105C23.8356 85.3606 23.2885 85.5106 22.7414 85.6607C22.2627 85.7295 21.784 85.7983 21.3053 85.8672C20.7923 85.9319 20.2808 85.9966 19.7679 86.0613C19.6612 86.0268 19.5545 85.9924 19.4478 85.958C19.1784 85.6469 18.9075 85.3372 18.6381 85.0261C18.6381 84.9228 18.6381 84.8196 18.6381 84.7163V84.2015C18.6367 84.1327 18.6367 84.0638 18.6367 83.995C18.8733 83.6371 19.1182 83.2847 19.3439 82.9213C20.3711 81.2652 21.1001 79.4743 21.7128 77.6311C21.8059 77.3516 21.7375 77.1713 21.5282 76.9386C20.5407 75.8442 19.7091 74.6397 19.2618 73.2108C19.0347 72.484 18.8446 71.7448 18.6367 71.0111C18.6367 70.6339 18.6367 70.2553 18.6367 69.8781V69.1568C18.6367 68.9159 18.6367 68.675 18.6367 68.4341C18.6668 68.3295 18.6955 68.2249 18.7256 68.1202C18.7338 67.9165 18.742 67.7141 18.7502 67.5104C19.0607 66.6156 19.3698 65.7209 19.6803 64.8247C19.7063 64.7875 19.7337 64.749 19.7597 64.7118C20.3054 63.8776 20.7923 62.998 21.4078 62.2202C22.554 60.7734 24.0627 59.7492 25.5713 58.7113C26.0364 58.3906 26.5808 58.3561 26.9952 58.012C27.158 57.8771 27.3098 57.7312 27.3919 57.6582C27.9171 57.4999 28.3794 57.3843 28.8253 57.2232C30.338 56.6795 31.8741 56.2334 33.4798 56.0669C33.7958 56.0338 34.1158 56.0201 34.4263 55.954C34.5795 55.921 34.7122 55.7902 34.7628 55.7599C35.3209 55.7599 35.8051 55.7475 36.2879 55.7627C36.8432 55.7819 37.3999 55.8618 37.9538 55.8535C39.8933 55.8218 41.7863 56.1357 43.6493 56.6354C44.4179 56.8419 45.1606 57.1489 45.9143 57.409C45.9854 57.4352 46.0579 57.4627 46.129 57.4889C47.3327 58.1056 48.5719 58.6617 49.7263 59.3597C50.5346 59.8484 51.2281 60.5311 51.9722 61.1272C52.072 61.3282 52.1719 61.5292 52.2731 61.7288L52.2717 61.7315Z" fill="white"/>
<path d="M15 67.0689C15.0344 67.0673 15.0672 67.0658 15.1016 67.0642C15.0672 67.1832 15.0344 67.3006 15 67.4196C15 67.3022 15 67.1848 15 67.0673V67.0689Z" fill="#C0C0C0"/>
<path d="M49.0918 60.3828C49.173 60.3437 49.2559 60.3045 49.3371 60.2638C49.2559 60.3029 49.173 60.3421 49.0918 60.3828Z" fill="#FDFDFD"/>
<path d="M21.5625 86.5022C21.6406 86.4725 21.7203 86.4427 21.7984 86.4146C21.7203 86.4443 21.6406 86.4741 21.5625 86.5022Z" fill="#020202"/>
<path d="M33.166 68.6864C33.2066 68.6551 33.2473 68.6253 33.2863 68.594C33.2457 68.6253 33.2051 68.6551 33.166 68.6864Z" fill="#020202"/>
<path d="M7.832 9.6L7.766 11.052C7.44333 11.0667 7.15733 11.1107 6.908 11.184C6.67333 11.2573 6.48267 11.426 6.336 11.69C6.204 11.9393 6.12333 12.3647 6.094 12.966L5.654 21.392C5.63933 21.788 5.61 22.162 5.566 22.514C5.53667 22.866 5.50733 23.1373 5.478 23.328H8.426C9.29133 23.3133 9.988 23.0127 10.516 22.426C11.044 21.8247 11.3373 20.9227 11.396 19.72H12.848L12.452 25H0.77L0.858 23.548C1.18067 23.5333 1.45933 23.4893 1.694 23.416C1.92867 23.3427 2.112 23.174 2.244 22.91C2.39067 22.646 2.47867 22.2207 2.508 21.634L2.948 13.208C2.97733 12.812 3.00667 12.4307 3.036 12.064C3.08 11.6973 3.11667 11.4187 3.146 11.228C2.91133 11.2427 2.618 11.2573 2.266 11.272C1.914 11.272 1.65733 11.2793 1.496 11.294L1.584 9.6H7.832ZM19.2598 13.758C19.9051 13.758 20.4771 13.8533 20.9758 14.044C21.4745 14.2347 21.8631 14.5353 22.1418 14.946C22.4205 15.3567 22.5598 15.8847 22.5598 16.53C22.5598 17.1313 22.3765 17.6447 22.0098 18.07C21.6578 18.4807 21.1885 18.818 20.6018 19.082C20.0298 19.346 19.3991 19.566 18.7098 19.742C18.0205 19.9033 17.3531 20.028 16.7078 20.116C16.7078 20.952 16.8031 21.5973 16.9938 22.052C17.1991 22.492 17.4558 22.8 17.7638 22.976C18.0718 23.1373 18.3798 23.218 18.6878 23.218C18.9371 23.218 19.2305 23.174 19.5678 23.086C19.9198 22.9833 20.2718 22.778 20.6238 22.47C20.9758 22.162 21.2838 21.7073 21.5478 21.106L22.7798 21.7C22.3691 22.6533 21.9071 23.3867 21.3938 23.9C20.8805 24.4133 20.3451 24.7653 19.7878 24.956C19.2305 25.1467 18.6658 25.242 18.0938 25.242C16.7445 25.2567 15.6738 24.868 14.8818 24.076C14.0898 23.284 13.6938 22.074 13.6938 20.446C13.6938 19.742 13.8038 19.0013 14.0238 18.224C14.2438 17.4467 14.5738 16.7207 15.0138 16.046C15.4685 15.3713 16.0478 14.8213 16.7518 14.396C17.4558 13.9707 18.2918 13.758 19.2598 13.758ZM19.0178 15.21C18.5191 15.21 18.1158 15.386 17.8078 15.738C17.4998 16.09 17.2651 16.5373 17.1038 17.08C16.9425 17.608 16.8325 18.1433 16.7738 18.686C17.5658 18.5393 18.1965 18.3413 18.6658 18.092C19.1351 17.8427 19.4725 17.5567 19.6778 17.234C19.8978 16.9113 20.0005 16.574 19.9858 16.222C19.9711 15.8553 19.8611 15.5987 19.6558 15.452C19.4505 15.2907 19.2378 15.21 19.0178 15.21ZM28.7578 10.678L28.3178 14H31.0678L30.9358 15.518L28.1858 15.562C28.1271 16.09 28.0611 16.662 27.9878 17.278C27.9144 17.8793 27.8484 18.4733 27.7898 19.06C27.7458 19.632 27.7018 20.1527 27.6578 20.622C27.6284 21.0767 27.6138 21.4287 27.6138 21.678C27.6138 21.8687 27.6358 22.0813 27.6798 22.316C27.7238 22.536 27.8191 22.7267 27.9658 22.888C28.1124 23.0493 28.3471 23.13 28.6698 23.13C28.7871 23.13 28.9558 23.1007 29.1758 23.042C29.4104 22.9687 29.6598 22.8367 29.9238 22.646C30.1878 22.4553 30.4298 22.1547 30.6498 21.744L31.7718 22.448C31.2731 23.3867 30.6644 24.0907 29.9458 24.56C29.2271 25.0147 28.4571 25.242 27.6358 25.242C26.8291 25.242 26.2204 25.0733 25.8098 24.736C25.4138 24.3987 25.1498 23.9587 25.0178 23.416C24.8858 22.8587 24.8271 22.2793 24.8418 21.678C24.8711 21.1793 24.9078 20.5927 24.9518 19.918C24.9958 19.2287 25.0544 18.51 25.1278 17.762C25.2011 16.9993 25.2744 16.2733 25.3478 15.584L23.5878 15.606L23.7858 14C24.8711 14 25.6704 13.714 26.1838 13.142C26.7118 12.57 27.0784 11.7487 27.2838 10.678H28.7578ZM34.3135 8.302C35.0028 8.28733 35.4941 8.50733 35.7875 8.962C36.0955 9.402 36.2348 9.952 36.2055 10.612C36.1908 11.0813 36.0955 11.58 35.9195 12.108C35.7435 12.636 35.4868 13.1787 35.1495 13.736C34.8268 14.2933 34.4235 14.858 33.9395 15.43L33.1255 14.814C33.2868 14.6087 33.4775 14.3153 33.6975 13.934C33.9175 13.5527 34.1155 13.1347 34.2915 12.68C34.4675 12.2107 34.5555 11.7633 34.5555 11.338C34.4528 11.3673 34.3648 11.3893 34.2915 11.404C34.2328 11.404 34.1668 11.404 34.0935 11.404C33.6975 11.404 33.3528 11.2867 33.0595 11.052C32.7661 10.8173 32.6268 10.4507 32.6415 9.952C32.6708 9.512 32.8395 9.13067 33.1475 8.808C33.4555 8.47067 33.8441 8.302 34.3135 8.302ZM40.4496 25.242C39.7456 25.242 39.0929 25.1393 38.4916 24.934C37.9049 24.7287 37.4282 24.4353 37.0616 24.054C36.6949 23.658 36.5116 23.2033 36.5116 22.69C36.5116 22.2353 36.6436 21.8687 36.9076 21.59C37.1862 21.2967 37.5236 21.15 37.9196 21.15C38.3156 21.15 38.6382 21.282 38.8876 21.546C39.1369 21.81 39.2616 22.1327 39.2616 22.514C39.2616 22.6167 39.2469 22.7267 39.2176 22.844C39.2029 22.9467 39.1736 23.0567 39.1296 23.174C39.2029 23.3207 39.3936 23.46 39.7016 23.592C40.0242 23.724 40.2956 23.79 40.5156 23.79C41.1609 23.79 41.6082 23.6507 41.8576 23.372C42.1216 23.0933 42.2536 22.778 42.2536 22.426C42.2536 22.1473 42.1436 21.9053 41.9236 21.7C41.7182 21.48 41.4469 21.2673 41.1096 21.062C40.7722 20.8567 40.4129 20.644 40.0316 20.424C39.3422 20.028 38.7702 19.6613 38.3156 19.324C37.8609 18.9867 37.5236 18.6347 37.3036 18.268C37.0982 17.8867 36.9956 17.4393 36.9956 16.926C36.9956 16.4127 37.1569 15.914 37.4796 15.43C37.8022 14.946 38.2716 14.55 38.8876 14.242C39.5182 13.9193 40.2809 13.758 41.1756 13.758C41.7622 13.758 42.3342 13.8533 42.8916 14.044C43.4636 14.2347 43.9329 14.5133 44.2996 14.88C44.6809 15.232 44.8716 15.6647 44.8716 16.178C44.8716 16.5593 44.7469 16.8967 44.4976 17.19C44.2482 17.4833 43.9109 17.63 43.4856 17.63C43.0896 17.63 42.7669 17.498 42.5176 17.234C42.2829 16.9553 42.1656 16.64 42.1656 16.288C42.1656 16.1707 42.1729 16.0607 42.1876 15.958C42.2169 15.8553 42.2536 15.7527 42.2976 15.65C42.1802 15.4887 41.9969 15.3787 41.7476 15.32C41.5129 15.2467 41.2929 15.21 41.0876 15.21C40.8822 15.21 40.6622 15.254 40.4276 15.342C40.2076 15.43 40.0169 15.562 39.8556 15.738C39.6942 15.8993 39.6136 16.1047 39.6136 16.354C39.6136 16.5593 39.6576 16.7427 39.7456 16.904C39.8482 17.0507 40.0462 17.2267 40.3396 17.432C40.6329 17.6227 41.0729 17.894 41.6596 18.246C42.1436 18.5247 42.6349 18.8253 43.1336 19.148C43.6469 19.4707 44.0722 19.852 44.4096 20.292C44.7616 20.7173 44.9376 21.238 44.9376 21.854C44.9376 22.514 44.7396 23.1007 44.3436 23.614C43.9476 24.1273 43.4122 24.5307 42.7376 24.824C42.0629 25.1027 41.3002 25.242 40.4496 25.242ZM65.4632 9.6L65.3312 14.572H63.8792C63.9232 13.78 63.8426 13.1273 63.6372 12.614C63.4466 12.086 63.1532 11.6973 62.7572 11.448C62.3759 11.184 61.9066 11.0593 61.3492 11.074H60.2932L59.7652 21.392C59.7506 21.788 59.7212 22.1693 59.6772 22.536C59.6332 22.9027 59.5966 23.1813 59.5672 23.372C59.7286 23.3573 59.9266 23.35 60.1612 23.35C60.3959 23.3353 60.6232 23.328 60.8432 23.328C61.0632 23.3133 61.2246 23.306 61.3272 23.306L61.2392 25H54.8592L54.9472 23.548C55.2846 23.5333 55.5706 23.4893 55.8052 23.416C56.0399 23.3427 56.2232 23.174 56.3552 22.91C56.5019 22.646 56.5899 22.2207 56.6192 21.634L57.1692 11.096H56.1572C55.3212 11.1107 54.6392 11.3967 54.1112 11.954C53.5979 12.5113 53.3119 13.384 53.2532 14.572H51.8012L52.1752 9.6H65.4632ZM71.0703 13.758C71.481 13.758 71.9576 13.802 72.5003 13.89C73.0576 13.9633 73.637 14.0733 74.2383 14.22C74.165 14.7627 74.0696 15.43 73.9523 16.222C73.835 17.014 73.7176 17.828 73.6003 18.664C73.4976 19.4853 73.4096 20.248 73.3363 20.952C73.263 21.6413 73.2263 22.1767 73.2263 22.558C73.2263 22.822 73.2556 22.998 73.3143 23.086C73.3876 23.1593 73.461 23.196 73.5343 23.196C73.7103 23.196 73.8936 23.0713 74.0843 22.822C74.275 22.5727 74.4656 22.118 74.6563 21.458L75.8443 21.81C75.7856 22.118 75.683 22.47 75.5363 22.866C75.3896 23.262 75.1916 23.6433 74.9423 24.01C74.7076 24.362 74.407 24.6553 74.0403 24.89C73.6883 25.1247 73.2703 25.242 72.7863 25.242C72.317 25.242 71.9063 25.1027 71.5543 24.824C71.2023 24.5453 71.0263 24.0173 71.0263 23.24C71.0263 23.0493 71.0336 22.8367 71.0483 22.602C71.063 22.3673 71.085 22.1547 71.1143 21.964H71.0923C70.8283 22.5947 70.5423 23.1227 70.2343 23.548C69.941 23.9733 69.633 24.3107 69.3103 24.56C69.0023 24.8093 68.6796 24.9853 68.3423 25.088C68.0196 25.1907 67.6896 25.242 67.3523 25.242C66.5456 25.242 65.8563 24.9193 65.2843 24.274C64.7123 23.614 64.4263 22.602 64.4263 21.238C64.4263 20.226 64.573 19.2727 64.8663 18.378C65.1596 17.4833 65.5923 16.6913 66.1643 16.002C66.7363 15.298 67.433 14.748 68.2543 14.352C69.0756 13.956 70.0143 13.758 71.0703 13.758ZM70.2563 15.21C69.8456 15.21 69.4643 15.342 69.1123 15.606C68.775 15.87 68.4743 16.2587 68.2103 16.772C67.961 17.2853 67.7703 17.9233 67.6383 18.686C67.5063 19.4487 67.4403 20.336 67.4403 21.348C67.4403 21.9493 67.5136 22.426 67.6603 22.778C67.807 23.1153 68.0123 23.284 68.2763 23.284C68.599 23.284 68.8996 23.1227 69.1783 22.8C69.457 22.4627 69.7063 22.0153 69.9263 21.458C70.161 20.886 70.359 20.2553 70.5203 19.566C70.6963 18.862 70.8356 18.1507 70.9383 17.432C71.0556 16.6987 71.129 16.002 71.1583 15.342C71.085 15.3127 70.953 15.2833 70.7623 15.254C70.5863 15.2247 70.4176 15.21 70.2563 15.21ZM81.0545 8.39C81.0105 8.84467 80.9592 9.292 80.9005 9.732C80.8565 10.1573 80.8125 10.568 80.7685 10.964C80.7245 11.36 80.6805 11.7487 80.6365 12.13C80.4752 13.538 80.3359 14.77 80.2185 15.826C80.1012 16.8673 79.9985 17.7693 79.9105 18.532C79.8372 19.28 79.7712 19.9107 79.7125 20.424C79.6685 20.9373 79.6319 21.3627 79.6025 21.7C79.5879 22.0373 79.5805 22.3233 79.5805 22.558C79.5805 22.822 79.6099 22.998 79.6685 23.086C79.7419 23.1593 79.8152 23.196 79.8885 23.196C80.0645 23.196 80.2405 23.0713 80.4165 22.822C80.5925 22.5727 80.7759 22.118 80.9665 21.458L82.1545 21.81C82.0665 22.1767 81.9345 22.5653 81.7585 22.976C81.5972 23.372 81.3845 23.746 81.1205 24.098C80.8565 24.4353 80.5265 24.714 80.1305 24.934C79.7492 25.1393 79.2945 25.242 78.7665 25.242C78.2385 25.242 77.7765 25.0807 77.3805 24.758C76.9845 24.4353 76.7865 23.8927 76.7865 23.13C76.7865 22.602 76.8012 22.0227 76.8305 21.392C76.8745 20.7613 76.9259 20.094 76.9845 19.39C77.0432 18.686 77.1092 17.9673 77.1825 17.234C77.2705 16.486 77.3585 15.7307 77.4465 14.968C77.5345 14.2053 77.6225 13.45 77.7105 12.702C77.7399 12.4087 77.7765 12.0787 77.8205 11.712C77.8792 11.3307 77.9379 10.9787 77.9965 10.656C77.7619 10.6707 77.4832 10.6853 77.1605 10.7C76.8525 10.7 76.6179 10.7073 76.4565 10.722L76.5445 9.05C77.2192 9.05 77.7839 9.01333 78.2385 8.94C78.6932 8.86667 79.0525 8.77867 79.3165 8.676C79.5805 8.57333 79.7639 8.478 79.8665 8.39H81.0545ZM90.2667 25.242C89.6214 25.242 89.0934 25.0367 88.6827 24.626C88.272 24.2153 87.8687 23.4747 87.4727 22.404C87.326 22.008 87.194 21.656 87.0767 21.348C86.9594 21.04 86.82 20.8347 86.6587 20.732C86.6 20.688 86.534 20.6587 86.4607 20.644C86.402 20.6147 86.336 20.6147 86.2627 20.644C86.1747 21.0547 86.1087 21.546 86.0647 22.118C86.0207 22.6753 85.9987 23.1447 85.9987 23.526C85.9987 23.7167 86.006 23.9587 86.0207 24.252C86.0354 24.5453 86.05 24.7947 86.0647 25H83.2047C83.1754 24.692 83.1534 24.472 83.1387 24.34C83.1387 24.208 83.1387 24.0687 83.1387 23.922C83.1387 23.7607 83.146 23.4307 83.1607 22.932C83.19 22.4187 83.2267 21.788 83.2707 21.04C83.3147 20.292 83.3734 19.4633 83.4467 18.554C83.52 17.63 83.6007 16.6693 83.6887 15.672C83.7914 14.6747 83.9087 13.6847 84.0407 12.702C84.07 12.4087 84.114 12.0787 84.1727 11.712C84.246 11.3307 84.312 10.9787 84.3707 10.656C84.136 10.6707 83.85 10.6853 83.5127 10.7C83.19 10.7 82.948 10.7073 82.7867 10.722L82.8747 9.05C83.564 9.05 84.136 9.01333 84.5907 8.94C85.0454 8.86667 85.4047 8.77867 85.6687 8.676C85.9474 8.57333 86.138 8.478 86.2407 8.39H87.4287C87.3554 8.918 87.2747 9.468 87.1867 10.04C87.1134 10.5973 87.04 11.1693 86.9667 11.756C86.8934 12.328 86.82 12.922 86.7467 13.538C86.688 14.1393 86.6147 14.6673 86.5267 15.122C86.4534 15.5767 86.38 16.002 86.3067 16.398H86.3287C86.6514 15.7527 87.0107 15.2393 87.4067 14.858C87.8174 14.462 88.228 14.1833 88.6387 14.022C89.064 13.846 89.4674 13.758 89.8487 13.758C90.3914 13.758 90.8387 13.8533 91.1907 14.044C91.5427 14.2347 91.7994 14.506 91.9607 14.858C92.1367 15.1953 92.2247 15.606 92.2247 16.09C92.2247 16.53 92.0927 17.0213 91.8287 17.564C91.5794 18.1067 91.1467 18.6127 90.5307 19.082C89.9294 19.5513 89.1007 19.896 88.0447 20.116V20.138C88.6607 20.1527 89.1007 20.314 89.3647 20.622C89.6434 20.9153 89.8414 21.216 89.9587 21.524C90.1054 21.832 90.23 22.1033 90.3327 22.338C90.45 22.5727 90.56 22.756 90.6627 22.888C90.78 23.0053 90.8974 23.064 91.0147 23.064C91.176 23.064 91.33 22.954 91.4767 22.734C91.638 22.514 91.7994 22.118 91.9607 21.546L93.1487 21.92C93.046 22.448 92.8627 22.9687 92.5987 23.482C92.3494 23.9807 92.0267 24.3987 91.6307 24.736C91.2494 25.0733 90.7947 25.242 90.2667 25.242ZM86.4167 19.236C87.502 19.236 88.3014 18.9647 88.8147 18.422C89.328 17.8647 89.5847 17.1167 89.5847 16.178C89.5847 15.9873 89.5627 15.8187 89.5187 15.672C89.4894 15.5253 89.4307 15.4153 89.3427 15.342C89.2547 15.254 89.1447 15.21 89.0127 15.21C88.778 15.21 88.4847 15.364 88.1327 15.672C87.7954 15.98 87.4654 16.4347 87.1427 17.036C86.8347 17.6373 86.5927 18.3707 86.4167 19.236Z" fill="#00705D"/>
</svg>
